<svg width="22" height="22" viewBox="0 0 22 22" fill="none" xmlns="http://www.w3.org/2000/svg">
<path d="M10.125 13.625H11.875C12.3391 13.625 12.7842 13.4406 13.1124 13.1124C13.4406 12.7842 13.625 12.3391 13.625 11.875C13.625 11.4109 13.4406 10.9658 13.1124 10.6376C12.7842 10.3094 12.3391 10.125 11.875 10.125H9.25C8.725 10.125 8.2875 10.3 8.025 10.65L3.125 15.375" stroke="white" stroke-width="1.75" stroke-linecap="round" stroke-linejoin="round"/>
<path d="M6.625 18.875L8.025 17.65C8.2875 17.3 8.725 17.125 9.25 17.125H12.75C13.7125 17.125 14.5875 16.775 15.2 16.075L19.225 12.225C19.5627 11.9059 19.7597 11.4658 19.7728 11.0014C19.786 10.537 19.6141 10.0864 19.295 9.74874C18.9759 9.41109 18.5358 9.21402 18.0714 9.2009C17.607 9.18777 17.1564 9.35966 16.8187 9.67874L13.1437 13.0912" stroke="white" stroke-width="1.75" stroke-linecap="round" stroke-linejoin="round"/>
<path d="M2.25 14.5L7.5 19.75" stroke="white" stroke-width="1.75" stroke-linecap="round" stroke-linejoin="round"/>
<path d="M14.4999 10.9124C15.9013 10.9124 17.0374 9.77632 17.0374 8.3749C17.0374 6.97348 15.9013 5.8374 14.4999 5.8374C13.0985 5.8374 11.9624 6.97348 11.9624 8.3749C11.9624 9.77632 13.0985 10.9124 14.4999 10.9124Z" stroke="white" stroke-width="1.75" stroke-linecap="round" stroke-linejoin="round"/>
<path d="M5.75 7.5C7.19975 7.5 8.375 6.32475 8.375 4.875C8.375 3.42525 7.19975 2.25 5.75 2.25C4.30025 2.25 3.125 3.42525 3.125 4.875C3.125 6.32475 4.30025 7.5 5.75 7.5Z" stroke="white" stroke-width="1.75" stroke-linecap="round" stroke-linejoin="round"/>
</svg>
