<svg width="214" height="75" viewBox="0 0 214 75" fill="none" xmlns="http://www.w3.org/2000/svg">
<g filter="url(#filter0_d_1_4293)">
<rect x="20" y="20" width="35" height="35" rx="10.5" fill="#05E4BF" shape-rendering="crispEdges"/>
<path d="M36.625 40.125H38.375C38.8391 40.125 39.2842 39.9406 39.6124 39.6124C39.9406 39.2842 40.125 38.8391 40.125 38.375C40.125 37.9109 39.9406 37.4658 39.6124 37.1376C39.2842 36.8094 38.8391 36.625 38.375 36.625H35.75C35.225 36.625 34.7875 36.8 34.525 37.15L29.625 41.875" stroke="white" stroke-width="1.75" stroke-linecap="round" stroke-linejoin="round"/>
<path d="M33.125 45.375L34.525 44.15C34.7875 43.8 35.225 43.625 35.75 43.625H39.25C40.2125 43.625 41.0875 43.275 41.7 42.575L45.725 38.725C46.0627 38.4059 46.2597 37.9658 46.2728 37.5014C46.286 37.037 46.1141 36.5864 45.795 36.2487C45.4759 35.9111 45.0358 35.714 44.5714 35.7009C44.107 35.6878 43.6564 35.8597 43.3187 36.1787L39.6437 39.5912" stroke="white" stroke-width="1.75" stroke-linecap="round" stroke-linejoin="round"/>
<path d="M28.75 41L34 46.25" stroke="white" stroke-width="1.75" stroke-linecap="round" stroke-linejoin="round"/>
<path d="M40.9999 37.4125C42.4013 37.4125 43.5374 36.2764 43.5374 34.875C43.5374 33.4736 42.4013 32.3375 40.9999 32.3375C39.5985 32.3375 38.4624 33.4736 38.4624 34.875C38.4624 36.2764 39.5985 37.4125 40.9999 37.4125Z" stroke="white" stroke-width="1.75" stroke-linecap="round" stroke-linejoin="round"/>
<path d="M32.25 34C33.6997 34 34.875 32.8247 34.875 31.375C34.875 29.9253 33.6997 28.75 32.25 28.75C30.8003 28.75 29.625 29.9253 29.625 31.375C29.625 32.8247 30.8003 34 32.25 34Z" stroke="white" stroke-width="1.75" stroke-linecap="round" stroke-linejoin="round"/>
</g>
<g clip-path="url(#clip0_1_4293)">
<path d="M66.5043 32.8182H68.7614L71.7841 40.196H71.9034L74.9261 32.8182H77.1832V43H75.4134V36.005H75.3189L72.505 42.9702H71.1825L68.3686 35.9901H68.2741V43H66.5043V32.8182ZM87.907 36.2536H86.0476C85.9946 35.9486 85.8968 35.6785 85.7543 35.4432C85.6117 35.2045 85.4344 35.0024 85.2223 34.8366C85.0102 34.6709 84.7682 34.5466 84.4964 34.4638C84.228 34.3776 83.938 34.3345 83.6264 34.3345C83.0729 34.3345 82.5824 34.4737 82.1548 34.7521C81.7273 35.0272 81.3925 35.4316 81.1506 35.9652C80.9086 36.4955 80.7876 37.1435 80.7876 37.9091C80.7876 38.688 80.9086 39.3442 81.1506 39.8778C81.3958 40.4081 81.7306 40.8092 82.1548 41.081C82.5824 41.3494 83.0713 41.4837 83.6214 41.4837C83.9264 41.4837 84.2114 41.4439 84.4766 41.3643C84.745 41.2815 84.9853 41.1605 85.1974 41.0014C85.4129 40.8423 85.5935 40.6468 85.7393 40.4148C85.8885 40.1828 85.9912 39.9176 86.0476 39.6193L87.907 39.6293C87.8374 40.1132 87.6866 40.5672 87.4545 40.9915C87.2259 41.4157 86.9259 41.7902 86.5547 42.1151C86.1835 42.4366 85.7493 42.6884 85.2521 42.8707C84.755 43.0497 84.2031 43.1392 83.5966 43.1392C82.7017 43.1392 81.9029 42.9321 81.2003 42.5178C80.4976 42.1035 79.9441 41.5052 79.5398 40.723C79.1354 39.9408 78.9332 39.0028 78.9332 37.9091C78.9332 36.812 79.1371 35.8741 79.5447 35.0952C79.9524 34.313 80.5076 33.7147 81.2102 33.3004C81.9129 32.8861 82.7083 32.679 83.5966 32.679C84.1634 32.679 84.6903 32.7585 85.1776 32.9176C85.6648 33.0767 86.099 33.3104 86.4801 33.6186C86.8613 33.9235 87.1745 34.2981 87.4197 34.7422C87.6683 35.183 87.8307 35.6868 87.907 36.2536ZM90.7805 43H88.8118L92.3963 32.8182H94.6733L98.2628 43H96.294L93.5746 34.9062H93.495L90.7805 43ZM90.8452 39.0078H96.2145V40.4893H90.8452V39.0078ZM103.077 43V32.8182H106.895C107.677 32.8182 108.333 32.964 108.863 33.2557C109.397 33.5473 109.8 33.9484 110.072 34.4588C110.347 34.9659 110.484 35.5426 110.484 36.1889C110.484 36.8419 110.347 37.4219 110.072 37.929C109.796 38.4361 109.39 38.8355 108.854 39.1271C108.317 39.4155 107.655 39.5597 106.87 39.5597H104.339V38.0433H106.621C107.079 38.0433 107.453 37.9638 107.745 37.8047C108.037 37.6456 108.252 37.4268 108.391 37.1484C108.534 36.87 108.605 36.5502 108.605 36.1889C108.605 35.8277 108.534 35.5095 108.391 35.2344C108.252 34.9593 108.035 34.7455 107.74 34.593C107.448 34.4373 107.072 34.3594 106.611 34.3594H104.921V43H103.077ZM113.806 32.8182V43H112.007V32.8182H113.806ZM117.855 43.1541C117.371 43.1541 116.935 43.0679 116.547 42.8956C116.163 42.7199 115.858 42.4614 115.632 42.12C115.41 41.7786 115.299 41.3577 115.299 40.8572C115.299 40.4264 115.379 40.0701 115.538 39.7884C115.697 39.5066 115.914 39.2812 116.189 39.1122C116.464 38.9432 116.774 38.8156 117.119 38.7294C117.467 38.6399 117.826 38.5753 118.198 38.5355C118.645 38.4891 119.008 38.4477 119.286 38.4112C119.565 38.3714 119.767 38.3118 119.893 38.2322C120.022 38.1494 120.087 38.0218 120.087 37.8494V37.8196C120.087 37.4451 119.976 37.1551 119.754 36.9496C119.532 36.7441 119.212 36.6413 118.794 36.6413C118.353 36.6413 118.004 36.7375 117.745 36.9297C117.49 37.1219 117.318 37.349 117.228 37.6108L115.548 37.3722C115.68 36.9081 115.899 36.5204 116.204 36.2088C116.509 35.8939 116.882 35.6586 117.323 35.5028C117.763 35.3438 118.251 35.2642 118.784 35.2642C119.152 35.2642 119.518 35.3073 119.883 35.3935C120.248 35.4796 120.581 35.6222 120.882 35.821C121.184 36.0166 121.426 36.2834 121.608 36.6214C121.794 36.9595 121.887 37.3821 121.887 37.8892V43H120.156V41.951H120.097C119.987 42.1631 119.833 42.362 119.634 42.5476C119.439 42.7299 119.192 42.8774 118.894 42.9901C118.599 43.0994 118.252 43.1541 117.855 43.1541ZM118.322 41.8317C118.683 41.8317 118.996 41.7604 119.262 41.6179C119.527 41.4721 119.731 41.2798 119.873 41.0412C120.019 40.8026 120.092 40.5424 120.092 40.2607V39.3608C120.035 39.4072 119.939 39.4503 119.803 39.4901C119.671 39.5298 119.522 39.5646 119.356 39.5945C119.19 39.6243 119.026 39.6508 118.864 39.674C118.701 39.6972 118.561 39.7171 118.441 39.7337C118.173 39.7701 117.932 39.8298 117.72 39.9126C117.508 39.9955 117.341 40.1115 117.218 40.2607C117.096 40.4065 117.034 40.5954 117.034 40.8274C117.034 41.1589 117.155 41.4091 117.397 41.5781C117.639 41.7472 117.947 41.8317 118.322 41.8317ZM127.509 35.3636V36.7557H123.119V35.3636H127.509ZM124.203 33.5341H126.003V40.7031C126.003 40.9451 126.039 41.1307 126.112 41.2599C126.189 41.3859 126.288 41.4721 126.411 41.5185C126.533 41.5649 126.669 41.5881 126.818 41.5881C126.931 41.5881 127.034 41.5798 127.127 41.5632C127.223 41.5466 127.296 41.5317 127.345 41.5185L127.649 42.9254C127.552 42.9586 127.415 42.995 127.236 43.0348C127.06 43.0746 126.845 43.0978 126.59 43.1044C126.139 43.1177 125.733 43.0497 125.372 42.9006C125.01 42.7481 124.724 42.5128 124.512 42.1946C124.303 41.8764 124.2 41.4787 124.203 41.0014V33.5341ZM132.882 35.3636V36.7557H128.368V35.3636H132.882ZM129.497 43V34.6428C129.497 34.129 129.603 33.7015 129.815 33.3601C130.03 33.0187 130.319 32.7635 130.68 32.5945C131.041 32.4254 131.442 32.3409 131.883 32.3409C132.195 32.3409 132.471 32.3658 132.713 32.4155C132.955 32.4652 133.134 32.5099 133.25 32.5497L132.892 33.9418C132.816 33.9186 132.72 33.8954 132.604 33.8722C132.488 33.8456 132.359 33.8324 132.216 33.8324C131.882 33.8324 131.645 33.9136 131.505 34.076C131.369 34.2351 131.301 34.4638 131.301 34.7621V43H129.497ZM137.336 43.1491C136.59 43.1491 135.944 42.9851 135.397 42.657C134.85 42.3288 134.426 41.8698 134.124 41.2798C133.826 40.6899 133.677 40.0005 133.677 39.2116C133.677 38.4228 133.826 37.7318 134.124 37.1385C134.426 36.5452 134.85 36.0845 135.397 35.7564C135.944 35.4283 136.59 35.2642 137.336 35.2642C138.081 35.2642 138.728 35.4283 139.275 35.7564C139.822 36.0845 140.244 36.5452 140.542 37.1385C140.844 37.7318 140.995 38.4228 140.995 39.2116C140.995 40.0005 140.844 40.6899 140.542 41.2798C140.244 41.8698 139.822 42.3288 139.275 42.657C138.728 42.9851 138.081 43.1491 137.336 43.1491ZM137.346 41.7074C137.75 41.7074 138.088 41.5964 138.36 41.3743C138.632 41.1489 138.834 40.8473 138.966 40.4695C139.102 40.0916 139.17 39.6707 139.17 39.2067C139.17 38.7393 139.102 38.3168 138.966 37.9389C138.834 37.5578 138.632 37.2545 138.36 37.0291C138.088 36.8037 137.75 36.6911 137.346 36.6911C136.931 36.6911 136.587 36.8037 136.312 37.0291C136.04 37.2545 135.836 37.5578 135.7 37.9389C135.568 38.3168 135.501 38.7393 135.501 39.2067C135.501 39.6707 135.568 40.0916 135.7 40.4695C135.836 40.8473 136.04 41.1489 136.312 41.3743C136.587 41.5964 136.931 41.7074 137.346 41.7074ZM142.522 43V35.3636H144.267V36.6364H144.347C144.486 36.1955 144.725 35.8558 145.063 35.6172C145.404 35.3752 145.794 35.2543 146.231 35.2543C146.331 35.2543 146.442 35.2592 146.564 35.2692C146.69 35.2758 146.795 35.2874 146.877 35.304V36.9595C146.801 36.933 146.68 36.9098 146.515 36.8899C146.352 36.8667 146.195 36.8551 146.042 36.8551C145.714 36.8551 145.419 36.9264 145.157 37.0689C144.899 37.2081 144.695 37.402 144.546 37.6506C144.397 37.8991 144.322 38.1858 144.322 38.5107V43H142.522ZM148.073 43V35.3636H149.793V36.6612H149.883C150.042 36.2237 150.305 35.8823 150.673 35.6371C151.041 35.3885 151.48 35.2642 151.991 35.2642C152.508 35.2642 152.944 35.3902 153.298 35.642C153.656 35.8906 153.908 36.2304 154.054 36.6612H154.134C154.303 36.237 154.588 35.8989 154.989 35.647C155.393 35.3918 155.872 35.2642 156.425 35.2642C157.128 35.2642 157.701 35.4863 158.146 35.9304C158.59 36.3745 158.812 37.0225 158.812 37.8743V43H157.007V38.1527C157.007 37.6787 156.881 37.3324 156.629 37.1136C156.377 36.8916 156.069 36.7805 155.705 36.7805C155.27 36.7805 154.931 36.9164 154.685 37.1882C154.443 37.4567 154.322 37.8063 154.322 38.2372V43H152.558V38.0781C152.558 37.6837 152.438 37.3688 152.2 37.1335C151.964 36.8982 151.656 36.7805 151.275 36.7805C151.016 36.7805 150.781 36.8468 150.569 36.9794C150.357 37.1087 150.188 37.2926 150.062 37.5312C149.936 37.7666 149.873 38.0417 149.873 38.3565V43H148.073Z" fill="white"/>
</g>
<defs>
<filter id="filter0_d_1_4293" x="0" y="0" width="75" height="75" filterUnits="userSpaceOnUse" color-interpolation-filters="sRGB">
<feFlood flood-opacity="0" result="BackgroundImageFix"/>
<feColorMatrix in="SourceAlpha" type="matrix" values="0 0 0 0 0 0 0 0 0 0 0 0 0 0 0 0 0 0 127 0" result="hardAlpha"/>
<feOffset/>
<feGaussianBlur stdDeviation="10"/>
<feComposite in2="hardAlpha" operator="out"/>
<feColorMatrix type="matrix" values="0 0 0 0 0.4 0 0 0 0 0.494118 0 0 0 0 0.917647 0 0 0 0.3 0"/>
<feBlend mode="normal" in2="BackgroundImageFix" result="effect1_dropShadow_1_4293"/>
<feBlend mode="normal" in="SourceGraphic" in2="effect1_dropShadow_1_4293" result="shape"/>
</filter>
<clipPath id="clip0_1_4293">
<rect width="148.5" height="21" fill="white" transform="translate(65.5 27)"/>
</clipPath>
</defs>
</svg>
